<?xml version="1.0" encoding="ISO-8859-1" standalone="no"?><svg xmlns="http://www.w3.org/2000/svg" xmlns:xlink="http://www.w3.org/1999/xlink" version="1.1" height="1000" width="552.5" viewBox="0 0 600 600" preserveAspectRatio="xMinYMid meet" id="Cadnano_Path"  >
<g id="GridLines"  >
<path d="M 73.75,28.75 h 472.5 M 73.75,40.0 h 472.5 M 73.75,51.25 h 472.5 M 73.75,28.75 v 22.5 M 85.0,28.75 v 22.5 M 96.25,28.75 v 22.5 M 107.5,28.75 v 22.5 M 118.75,28.75 v 22.5 M 130.0,28.75 v 22.5 M 141.25,28.75 v 22.5 M 152.5,28.75 v 22.5 M 163.75,28.75 v 22.5 M 175.0,28.75 v 22.5 M 186.25,28.75 v 22.5 M 197.5,28.75 v 22.5 M 208.75,28.75 v 22.5 M 220.0,28.75 v 22.5 M 231.25,28.75 v 22.5 M 242.5,28.75 v 22.5 M 253.75,28.75 v 22.5 M 265.0,28.75 v 22.5 M 276.25,28.75 v 22.5 M 287.5,28.75 v 22.5 M 298.75,28.75 v 22.5 M 310.0,28.75 v 22.5 M 321.25,28.75 v 22.5 M 332.5,28.75 v 22.5 M 343.75,28.75 v 22.5 M 355.0,28.75 v 22.5 M 366.25,28.75 v 22.5 M 377.5,28.75 v 22.5 M 388.75,28.75 v 22.5 M 400.0,28.75 v 22.5 M 411.25,28.75 v 22.5 M 422.5,28.75 v 22.5 M 433.75,28.75 v 22.5 M 445.0,28.75 v 22.5 M 456.25,28.75 v 22.5 M 467.5,28.75 v 22.5 M 478.75,28.75 v 22.5 M 490.0,28.75 v 22.5 M 501.25,28.75 v 22.5 M 512.5,28.75 v 22.5 M 523.75,28.75 v 22.5 M 535.0,28.75 v 22.5 M 546.25,28.75 v 22.5 " style="fill:none; stroke:#666666; stroke-width:0.25" id="grid_vh0"  />
<path d="M 73.75,85.0 h 472.5 M 73.75,96.25 h 472.5 M 73.75,107.5 h 472.5 M 73.75,85.0 v 22.5 M 85.0,85.0 v 22.5 M 96.25,85.0 v 22.5 M 107.5,85.0 v 22.5 M 118.75,85.0 v 22.5 M 130.0,85.0 v 22.5 M 141.25,85.0 v 22.5 M 152.5,85.0 v 22.5 M 163.75,85.0 v 22.5 M 175.0,85.0 v 22.5 M 186.25,85.0 v 22.5 M 197.5,85.0 v 22.5 M 208.75,85.0 v 22.5 M 220.0,85.0 v 22.5 M 231.25,85.0 v 22.5 M 242.5,85.0 v 22.5 M 253.75,85.0 v 22.5 M 265.0,85.0 v 22.5 M 276.25,85.0 v 22.5 M 287.5,85.0 v 22.5 M 298.75,85.0 v 22.5 M 310.0,85.0 v 22.5 M 321.25,85.0 v 22.5 M 332.5,85.0 v 22.5 M 343.75,85.0 v 22.5 M 355.0,85.0 v 22.5 M 366.25,85.0 v 22.5 M 377.5,85.0 v 22.5 M 388.75,85.0 v 22.5 M 400.0,85.0 v 22.5 M 411.25,85.0 v 22.5 M 422.5,85.0 v 22.5 M 433.75,85.0 v 22.5 M 445.0,85.0 v 22.5 M 456.25,85.0 v 22.5 M 467.5,85.0 v 22.5 M 478.75,85.0 v 22.5 M 490.0,85.0 v 22.5 M 501.25,85.0 v 22.5 M 512.5,85.0 v 22.5 M 523.75,85.0 v 22.5 M 535.0,85.0 v 22.5 M 546.25,85.0 v 22.5 " style="fill:none; stroke:#666666; stroke-width:0.25" id="grid_vh1"  />
<path d="M 73.75,141.25 h 472.5 M 73.75,152.5 h 472.5 M 73.75,163.75 h 472.5 M 73.75,141.25 v 22.5 M 85.0,141.25 v 22.5 M 96.25,141.25 v 22.5 M 107.5,141.25 v 22.5 M 118.75,141.25 v 22.5 M 130.0,141.25 v 22.5 M 141.25,141.25 v 22.5 M 152.5,141.25 v 22.5 M 163.75,141.25 v 22.5 M 175.0,141.25 v 22.5 M 186.25,141.25 v 22.5 M 197.5,141.25 v 22.5 M 208.75,141.25 v 22.5 M 220.0,141.25 v 22.5 M 231.25,141.25 v 22.5 M 242.5,141.25 v 22.5 M 253.75,141.25 v 22.5 M 265.0,141.25 v 22.5 M 276.25,141.25 v 22.5 M 287.5,141.25 v 22.5 M 298.75,141.25 v 22.5 M 310.0,141.25 v 22.5 M 321.25,141.25 v 22.5 M 332.5,141.25 v 22.5 M 343.75,141.25 v 22.5 M 355.0,141.25 v 22.5 M 366.25,141.25 v 22.5 M 377.5,141.25 v 22.5 M 388.75,141.25 v 22.5 M 400.0,141.25 v 22.5 M 411.25,141.25 v 22.5 M 422.5,141.25 v 22.5 M 433.75,141.25 v 22.5 M 445.0,141.25 v 22.5 M 456.25,141.25 v 22.5 M 467.5,141.25 v 22.5 M 478.75,141.25 v 22.5 M 490.0,141.25 v 22.5 M 501.25,141.25 v 22.5 M 512.5,141.25 v 22.5 M 523.75,141.25 v 22.5 M 535.0,141.25 v 22.5 M 546.25,141.25 v 22.5 " style="fill:none; stroke:#666666; stroke-width:0.25" id="grid_vh2"  />
<path d="M 73.75,197.5 h 472.5 M 73.75,208.75 h 472.5 M 73.75,220.0 h 472.5 M 73.75,197.5 v 22.5 M 85.0,197.5 v 22.5 M 96.25,197.5 v 22.5 M 107.5,197.5 v 22.5 M 118.75,197.5 v 22.5 M 130.0,197.5 v 22.5 M 141.25,197.5 v 22.5 M 152.5,197.5 v 22.5 M 163.75,197.5 v 22.5 M 175.0,197.5 v 22.5 M 186.25,197.5 v 22.5 M 197.5,197.5 v 22.5 M 208.75,197.5 v 22.5 M 220.0,197.5 v 22.5 M 231.25,197.5 v 22.5 M 242.5,197.5 v 22.5 M 253.75,197.5 v 22.5 M 265.0,197.5 v 22.5 M 276.25,197.5 v 22.5 M 287.5,197.5 v 22.5 M 298.75,197.5 v 22.5 M 310.0,197.5 v 22.5 M 321.25,197.5 v 22.5 M 332.5,197.5 v 22.5 M 343.75,197.5 v 22.5 M 355.0,197.5 v 22.5 M 366.25,197.5 v 22.5 M 377.5,197.5 v 22.5 M 388.75,197.5 v 22.5 M 400.0,197.5 v 22.5 M 411.25,197.5 v 22.5 M 422.5,197.5 v 22.5 M 433.75,197.5 v 22.5 M 445.0,197.5 v 22.5 M 456.25,197.5 v 22.5 M 467.5,197.5 v 22.5 M 478.75,197.5 v 22.5 M 490.0,197.5 v 22.5 M 501.25,197.5 v 22.5 M 512.5,197.5 v 22.5 M 523.75,197.5 v 22.5 M 535.0,197.5 v 22.5 M 546.25,197.5 v 22.5 " style="fill:none; stroke:#666666; stroke-width:0.25" id="grid_vh3"  />
<path d="M 73.75,253.75 h 472.5 M 73.75,265.0 h 472.5 M 73.75,276.25 h 472.5 M 73.75,253.75 v 22.5 M 85.0,253.75 v 22.5 M 96.25,253.75 v 22.5 M 107.5,253.75 v 22.5 M 118.75,253.75 v 22.5 M 130.0,253.75 v 22.5 M 141.25,253.75 v 22.5 M 152.5,253.75 v 22.5 M 163.75,253.75 v 22.5 M 175.0,253.75 v 22.5 M 186.25,253.75 v 22.5 M 197.5,253.75 v 22.5 M 208.75,253.75 v 22.5 M 220.0,253.75 v 22.5 M 231.25,253.75 v 22.5 M 242.5,253.75 v 22.5 M 253.75,253.75 v 22.5 M 265.0,253.75 v 22.5 M 276.25,253.75 v 22.5 M 287.5,253.75 v 22.5 M 298.75,253.75 v 22.5 M 310.0,253.75 v 22.5 M 321.25,253.75 v 22.5 M 332.5,253.75 v 22.5 M 343.75,253.75 v 22.5 M 355.0,253.75 v 22.5 M 366.25,253.75 v 22.5 M 377.5,253.75 v 22.5 M 388.75,253.75 v 22.5 M 400.0,253.75 v 22.5 M 411.25,253.75 v 22.5 M 422.5,253.75 v 22.5 M 433.75,253.75 v 22.5 M 445.0,253.75 v 22.5 M 456.25,253.75 v 22.5 M 467.5,253.75 v 22.5 M 478.75,253.75 v 22.5 M 490.0,253.75 v 22.5 M 501.25,253.75 v 22.5 M 512.5,253.75 v 22.5 M 523.75,253.75 v 22.5 M 535.0,253.75 v 22.5 M 546.25,253.75 v 22.5 " style="fill:none; stroke:#666666; stroke-width:0.25" id="grid_vh4"  />
<path d="M 73.75,310.0 h 472.5 M 73.75,321.25 h 472.5 M 73.75,332.5 h 472.5 M 73.75,310.0 v 22.5 M 85.0,310.0 v 22.5 M 96.25,310.0 v 22.5 M 107.5,310.0 v 22.5 M 118.75,310.0 v 22.5 M 130.0,310.0 v 22.5 M 141.25,310.0 v 22.5 M 152.5,310.0 v 22.5 M 163.75,310.0 v 22.5 M 175.0,310.0 v 22.5 M 186.25,310.0 v 22.5 M 197.5,310.0 v 22.5 M 208.75,310.0 v 22.5 M 220.0,310.0 v 22.5 M 231.25,310.0 v 22.5 M 242.5,310.0 v 22.5 M 253.75,310.0 v 22.5 M 265.0,310.0 v 22.5 M 276.25,310.0 v 22.5 M 287.5,310.0 v 22.5 M 298.75,310.0 v 22.5 M 310.0,310.0 v 22.5 M 321.25,310.0 v 22.5 M 332.5,310.0 v 22.5 M 343.75,310.0 v 22.5 M 355.0,310.0 v 22.5 M 366.25,310.0 v 22.5 M 377.5,310.0 v 22.5 M 388.75,310.0 v 22.5 M 400.0,310.0 v 22.5 M 411.25,310.0 v 22.5 M 422.5,310.0 v 22.5 M 433.75,310.0 v 22.5 M 445.0,310.0 v 22.5 M 456.25,310.0 v 22.5 M 467.5,310.0 v 22.5 M 478.75,310.0 v 22.5 M 490.0,310.0 v 22.5 M 501.25,310.0 v 22.5 M 512.5,310.0 v 22.5 M 523.75,310.0 v 22.5 M 535.0,310.0 v 22.5 M 546.25,310.0 v 22.5 " style="fill:none; stroke:#666666; stroke-width:0.25" id="grid_vh5"  />
<path d="M 73.75,366.25 h 472.5 M 73.75,377.5 h 472.5 M 73.75,388.75 h 472.5 M 73.75,366.25 v 22.5 M 85.0,366.25 v 22.5 M 96.25,366.25 v 22.5 M 107.5,366.25 v 22.5 M 118.75,366.25 v 22.5 M 130.0,366.25 v 22.5 M 141.25,366.25 v 22.5 M 152.5,366.25 v 22.5 M 163.75,366.25 v 22.5 M 175.0,366.25 v 22.5 M 186.25,366.25 v 22.5 M 197.5,366.25 v 22.5 M 208.75,366.25 v 22.5 M 220.0,366.25 v 22.5 M 231.25,366.25 v 22.5 M 242.5,366.25 v 22.5 M 253.75,366.25 v 22.5 M 265.0,366.25 v 22.5 M 276.25,366.25 v 22.5 M 287.5,366.25 v 22.5 M 298.75,366.25 v 22.5 M 310.0,366.25 v 22.5 M 321.25,366.25 v 22.5 M 332.5,366.25 v 22.5 M 343.75,366.25 v 22.5 M 355.0,366.25 v 22.5 M 366.25,366.25 v 22.5 M 377.5,366.25 v 22.5 M 388.75,366.25 v 22.5 M 400.0,366.25 v 22.5 M 411.25,366.25 v 22.5 M 422.5,366.25 v 22.5 M 433.75,366.25 v 22.5 M 445.0,366.25 v 22.5 M 456.25,366.25 v 22.5 M 467.5,366.25 v 22.5 M 478.75,366.25 v 22.5 M 490.0,366.25 v 22.5 M 501.25,366.25 v 22.5 M 512.5,366.25 v 22.5 M 523.75,366.25 v 22.5 M 535.0,366.25 v 22.5 M 546.25,366.25 v 22.5 " style="fill:none; stroke:#666666; stroke-width:0.25" id="grid_vh6"  />
<path d="M 73.75,422.5 h 472.5 M 73.75,433.75 h 472.5 M 73.75,445.0 h 472.5 M 73.75,422.5 v 22.5 M 85.0,422.5 v 22.5 M 96.25,422.5 v 22.5 M 107.5,422.5 v 22.5 M 118.75,422.5 v 22.5 M 130.0,422.5 v 22.5 M 141.25,422.5 v 22.5 M 152.5,422.5 v 22.5 M 163.75,422.5 v 22.5 M 175.0,422.5 v 22.5 M 186.25,422.5 v 22.5 M 197.5,422.5 v 22.5 M 208.75,422.5 v 22.5 M 220.0,422.5 v 22.5 M 231.25,422.5 v 22.5 M 242.5,422.5 v 22.5 M 253.75,422.5 v 22.5 M 265.0,422.5 v 22.5 M 276.25,422.5 v 22.5 M 287.5,422.5 v 22.5 M 298.75,422.5 v 22.5 M 310.0,422.5 v 22.5 M 321.25,422.5 v 22.5 M 332.5,422.5 v 22.5 M 343.75,422.5 v 22.5 M 355.0,422.5 v 22.5 M 366.25,422.5 v 22.5 M 377.5,422.5 v 22.5 M 388.75,422.5 v 22.5 M 400.0,422.5 v 22.5 M 411.25,422.5 v 22.5 M 422.5,422.5 v 22.5 M 433.75,422.5 v 22.5 M 445.0,422.5 v 22.5 M 456.25,422.5 v 22.5 M 467.5,422.5 v 22.5 M 478.75,422.5 v 22.5 M 490.0,422.5 v 22.5 M 501.25,422.5 v 22.5 M 512.5,422.5 v 22.5 M 523.75,422.5 v 22.5 M 535.0,422.5 v 22.5 M 546.25,422.5 v 22.5 " style="fill:none; stroke:#666666; stroke-width:0.25" id="grid_vh7"  />
</g>
<g id="Oligos"  >
<path d="M 270.625, 428.125 h 112.5 Q 381.775 405.625, 383.125 383.125 h -67.5 Q 317.65 349.375, 315.625 315.625 h 67.5 Q 381.775 293.125, 383.125 270.625 h -67.5 Q 317.65 236.875, 315.625 203.125 h 67.5 Q 381.775 180.625, 383.125 158.125 h -146.25 Q 238.9 124.375, 236.875 90.625 h 146.25 Q 381.775 68.125, 383.125 45.625 h -303.75 " style="fill:none; stroke:#57bb00; stroke-width:1" id="oligo_0" stroke-linejoin="round"  />
<path d="M 540.625, 158.125 h -67.5 Q 475.15 124.375, 473.125 90.625 h 67.5 " style="fill:none; stroke:#f7931e; stroke-width:1" id="oligo_1" stroke-linejoin="round"  />
<path d="M 79.375, 259.375 h 461.25 " style="fill:none; stroke:#0066cc; stroke-width:1" id="oligo_2" stroke-linejoin="round"  />
<path d="M 540.625, 45.625 h -146.25 Q 395.725 68.125, 394.375 90.625 h 67.5 Q 459.85 124.375, 461.875 158.125 h -67.5 Q 395.725 180.625, 394.375 203.125 h 146.25 " style="fill:none; stroke:#cc0000; stroke-width:1" id="oligo_3" stroke-linejoin="round"  />
<path d="M 518.125, 439.375 h -438.75 " style="fill:none; stroke:#0066cc; stroke-width:1" id="oligo_4" stroke-linejoin="round"  />
<path d="M 540.625, 214.375 h -461.25 " style="fill:none; stroke:#0066cc; stroke-width:1" id="oligo_5" stroke-linejoin="round"  />
<path d="M 79.375, 146.875 h 461.25 " style="fill:none; stroke:#0066cc; stroke-width:1" id="oligo_6" stroke-linejoin="round"  />
<path d="M 79.375, 203.125 h 67.5 Q 145.525 180.625, 146.875 158.125 h -67.5 " style="fill:none; stroke:#aaaa00; stroke-width:1" id="oligo_7" stroke-linejoin="round"  />
<path d="M 540.625, 326.875 h -461.25 " style="fill:none; stroke:#0066cc; stroke-width:1" id="oligo_8" stroke-linejoin="round"  />
<path d="M 79.375, 315.625 h 67.5 Q 145.525 293.125, 146.875 270.625 h -67.5 " style="fill:none; stroke:#007200; stroke-width:1" id="oligo_9" stroke-linejoin="round"  />
<path d="M 79.375, 90.625 h 146.25 Q 223.6 124.375, 225.625 158.125 h -67.5 Q 159.475 180.625, 158.125 203.125 h 146.25 Q 302.35 236.875, 304.375 270.625 h -146.25 Q 159.475 293.125, 158.125 315.625 h 67.5 " style="fill:none; stroke:#f74308; stroke-width:1" id="oligo_10" stroke-linejoin="round"  />
<path d="M 79.375, 371.875 h 461.25 " style="fill:none; stroke:#0066cc; stroke-width:1" id="oligo_11" stroke-linejoin="round"  />
<path d="M 495.625, 270.625 h -101.25 Q 395.725 293.125, 394.375 315.625 h 146.25 " style="fill:none; stroke:#57bb00; stroke-width:1" id="oligo_12" stroke-linejoin="round"  />
<path d="M 79.375, 34.375 h 123.75 Q 201.1 68.125, 203.125 101.875 h -123.75 " style="fill:none; stroke:#0066cc; stroke-width:1" id="oligo_13" stroke-linejoin="round"  />
<path d="M 540.625, 383.125 h -146.25 Q 395.725 405.625, 394.375 428.125 h 112.5 " style="fill:none; stroke:#03b6a2; stroke-width:1" id="oligo_14" stroke-linejoin="round"  />
<path d="M 79.375, 428.125 h 67.5 Q 145.525 405.625, 146.875 383.125 h -67.5 " style="fill:none; stroke:#1700de; stroke-width:1" id="oligo_15" stroke-linejoin="round"  />
<path d="M 540.625, 101.875 h -326.25 Q 216.4 68.125, 214.375 34.375 h 281.25 " style="fill:none; stroke:#0066cc; stroke-width:1" id="oligo_16" stroke-linejoin="round"  />
<path d="M 236.875, 315.625 h 67.5 Q 302.35 349.375, 304.375 383.125 h -146.25 Q 159.475 405.625, 158.125 428.125 h 78.75 " style="fill:none; stroke:#333333; stroke-width:1" id="oligo_17" stroke-linejoin="round"  />
</g>
<g id="Endpoints"  >
<rect x="267.8125" y="423.0625" height="10.125" width="8.4375" style="fill:#57bb00; stroke:none; stroke-width:0.5" id="end5p_0"  />
<rect x="535.0" y="153.0625" height="10.125" width="8.4375" style="fill:#f7931e; stroke:none; stroke-width:0.5" id="end5p_1"  />
<rect x="76.5625" y="254.3125" height="10.125" width="8.4375" style="fill:#0066cc; stroke:none; stroke-width:0.5" id="end5p_2"  />
<rect x="535.0" y="40.5625" height="10.125" width="8.4375" style="fill:#cc0000; stroke:none; stroke-width:0.5" id="end5p_3"  />
<rect x="512.5" y="434.3125" height="10.125" width="8.4375" style="fill:#0066cc; stroke:none; stroke-width:0.5" id="end5p_4"  />
<rect x="535.0" y="209.3125" height="10.125" width="8.4375" style="fill:#0066cc; stroke:none; stroke-width:0.5" id="end5p_5"  />
<rect x="76.5625" y="141.8125" height="10.125" width="8.4375" style="fill:#0066cc; stroke:none; stroke-width:0.5" id="end5p_6"  />
<rect x="76.5625" y="198.0625" height="10.125" width="8.4375" style="fill:#aaaa00; stroke:none; stroke-width:0.5" id="end5p_7"  />
<rect x="535.0" y="321.8125" height="10.125" width="8.4375" style="fill:#0066cc; stroke:none; stroke-width:0.5" id="end5p_8"  />
<rect x="76.5625" y="310.5625" height="10.125" width="8.4375" style="fill:#007200; stroke:none; stroke-width:0.5" id="end5p_9"  />
<rect x="76.5625" y="85.5625" height="10.125" width="8.4375" style="fill:#f74308; stroke:none; stroke-width:0.5" id="end5p_10"  />
<rect x="76.5625" y="366.8125" height="10.125" width="8.4375" style="fill:#0066cc; stroke:none; stroke-width:0.5" id="end5p_11"  />
<rect x="490.0" y="265.5625" height="10.125" width="8.4375" style="fill:#57bb00; stroke:none; stroke-width:0.5" id="end5p_12"  />
<rect x="76.5625" y="29.3125" height="10.125" width="8.4375" style="fill:#0066cc; stroke:none; stroke-width:0.5" id="end5p_13"  />
<rect x="535.0" y="378.0625" height="10.125" width="8.4375" style="fill:#03b6a2; stroke:none; stroke-width:0.5" id="end5p_14"  />
<rect x="76.5625" y="423.0625" height="10.125" width="8.4375" style="fill:#1700de; stroke:none; stroke-width:0.5" id="end5p_15"  />
<rect x="535.0" y="96.8125" height="10.125" width="8.4375" style="fill:#0066cc; stroke:none; stroke-width:0.5" id="end5p_16"  />
<rect x="234.0625" y="310.5625" height="10.125" width="8.4375" style="fill:#333333; stroke:none; stroke-width:0.5" id="end5p_17"  />
<polygon points="85.0,40.0 76.5625,45.625 85.0,51.25 85.0,40.0" style="fill:#57bb00; stroke:none; stroke-width:0.5" id="end3p_0"  />
<polygon points="535.0,85.0 543.4375,90.625 535.0,96.25 535.0,85.0" style="fill:#f7931e; stroke:none; stroke-width:0.5" id="end3p_1"  />
<polygon points="535.0,253.75 543.4375,259.375 535.0,265.0 535.0,253.75" style="fill:#0066cc; stroke:none; stroke-width:0.5" id="end3p_2"  />
<polygon points="535.0,197.5 543.4375,203.125 535.0,208.75 535.0,197.5" style="fill:#cc0000; stroke:none; stroke-width:0.5" id="end3p_3"  />
<polygon points="85.0,433.75 76.5625,439.375 85.0,445.0 85.0,433.75" style="fill:#0066cc; stroke:none; stroke-width:0.5" id="end3p_4"  />
<polygon points="85.0,208.75 76.5625,214.375 85.0,220.0 85.0,208.75" style="fill:#0066cc; stroke:none; stroke-width:0.5" id="end3p_5"  />
<polygon points="535.0,141.25 543.4375,146.875 535.0,152.5 535.0,141.25" style="fill:#0066cc; stroke:none; stroke-width:0.5" id="end3p_6"  />
<polygon points="85.0,152.5 76.5625,158.125 85.0,163.75 85.0,152.5" style="fill:#aaaa00; stroke:none; stroke-width:0.5" id="end3p_7"  />
<polygon points="85.0,321.25 76.5625,326.875 85.0,332.5 85.0,321.25" style="fill:#0066cc; stroke:none; stroke-width:0.5" id="end3p_8"  />
<polygon points="85.0,265.0 76.5625,270.625 85.0,276.25 85.0,265.0" style="fill:#007200; stroke:none; stroke-width:0.5" id="end3p_9"  />
<polygon points="220.0,310.0 228.4375,315.625 220.0,321.25 220.0,310.0" style="fill:#f74308; stroke:none; stroke-width:0.5" id="end3p_10"  />
<polygon points="535.0,366.25 543.4375,371.875 535.0,377.5 535.0,366.25" style="fill:#0066cc; stroke:none; stroke-width:0.5" id="end3p_11"  />
<polygon points="535.0,310.0 543.4375,315.625 535.0,321.25 535.0,310.0" style="fill:#57bb00; stroke:none; stroke-width:0.5" id="end3p_12"  />
<polygon points="85.0,96.25 76.5625,101.875 85.0,107.5 85.0,96.25" style="fill:#0066cc; stroke:none; stroke-width:0.5" id="end3p_13"  />
<polygon points="501.25,422.5 509.6875,428.125 501.25,433.75 501.25,422.5" style="fill:#03b6a2; stroke:none; stroke-width:0.5" id="end3p_14"  />
<polygon points="85.0,377.5 76.5625,383.125 85.0,388.75 85.0,377.5" style="fill:#1700de; stroke:none; stroke-width:0.5" id="end3p_15"  />
<polygon points="490.0,28.75 498.4375,34.375 490.0,40.0 490.0,28.75" style="fill:#0066cc; stroke:none; stroke-width:0.5" id="end3p_16"  />
<polygon points="231.25,422.5 239.6875,428.125 231.25,433.75 231.25,422.5" style="fill:#333333; stroke:none; stroke-width:0.5" id="end3p_17"  />
</g>
<g id="VirtualHelices"  >
<circle cx="40" cy="40.0" r="11.25" style="fill:#f2ca9a; stroke:#cc6600; stroke-width:1;" id="circle_vh0"  />
<circle cx="40" cy="96.25" r="11.25" style="fill:#f2ca9a; stroke:#cc6600; stroke-width:1;" id="circle_vh1"  />
<circle cx="40" cy="152.5" r="11.25" style="fill:#f2ca9a; stroke:#cc6600; stroke-width:1;" id="circle_vh2"  />
<circle cx="40" cy="208.75" r="11.25" style="fill:#f2ca9a; stroke:#cc6600; stroke-width:1;" id="circle_vh3"  />
<circle cx="40" cy="265.0" r="11.25" style="fill:#f2ca9a; stroke:#cc6600; stroke-width:1;" id="circle_vh4"  />
<circle cx="40" cy="321.25" r="11.25" style="fill:#f2ca9a; stroke:#cc6600; stroke-width:1;" id="circle_vh5"  />
<circle cx="40" cy="377.5" r="11.25" style="fill:#f2ca9a; stroke:#cc6600; stroke-width:1;" id="circle_vh6"  />
<circle cx="40" cy="433.75" r="11.25" style="fill:#f2ca9a; stroke:#cc6600; stroke-width:1;" id="circle_vh7"  />
</g>
<g id="VirtualHelixLabels" font-size="16" font-family="sans-serif" text-anchor="middle"  >
<text x="40" y="45.625" id="label_vh0"  >
0</text>
<text x="40" y="101.875" id="label_vh1"  >
1</text>
<text x="40" y="158.125" id="label_vh2"  >
2</text>
<text x="40" y="214.375" id="label_vh3"  >
3</text>
<text x="40" y="270.625" id="label_vh4"  >
4</text>
<text x="40" y="326.875" id="label_vh5"  >
5</text>
<text x="40" y="383.125" id="label_vh6"  >
6</text>
<text x="40" y="439.375" id="label_vh7"  >
7</text>
</g>
</svg>
